<svg data-width="100" viewBox="0 0 128 128"><path fill="#E44D26" d="M27.85 116.35l-8.04-90.2h88.38l-8.05 90.19-36.2 10.03z" /><path fill="#F16529" d="M64 118.7l29.24-8.1 6.89-77.08H64z" /><path fill="#EBEBEB" d="M64 66.98H49.36l-1.01-11.33H64V44.58H36.26l.26 2.97 2.72 30.5H64zm0 28.73l-.05.01-12.32-3.32-.79-8.83h-11.1l1.55 17.38 22.66 6.29.05-.02z" /><path d="M28.03 1.63h5.63v5.55h5.14V1.63h5.62v16.82H38.8v-5.63h-5.14v5.63h-5.63V1.63zM51.82 7.2h-4.95V1.63h15.52V7.2h-4.95v11.24h-5.62V7.2zm13.04-5.58h5.86l3.6 5.9 3.6-5.9h5.87v16.82h-5.6V10.1l-3.87 5.98h-.1l-3.86-5.98v8.34h-5.5V1.63zm21.73 0h5.62v11.26h7.91v5.56H86.6V1.63z" /><path fill="#fff" d="M63.96 66.98v11.06H77.6L76.3 92.4l-12.34 3.33v11.51l22.68-6.28.17-1.87 2.6-29.13.27-2.97H86.7zm0-22.4v11.07H90.7l.22-2.49.5-5.6.27-2.98z" /></svg>